<svg xmlns="http://www.w3.org/2000/svg" fill-rule="evenodd" stroke-linejoin="round" stroke-miterlimit="2" clip-rule="evenodd" viewBox="0 0 33 33"><path fill="none" d="M.463.704h32v32h-32z"/><path d="M6.634 23.704H5.463a3 3 0 01-3-3v-10a3 3 0 013-3h14a3 3 0 013 3v1h1.2c1.284 0 2.519.494 3.449 1.379l2.429 2.314c.589.561.922 1.339.922 2.153v4.376c0 .982-.796 1.778-1.778 1.778h-2.393a3.001 3.001 0 01-5.658 0h-8.342a3.001 3.001 0 01-5.658 0zm2.829-2a1 1 0 110 2 1 1 0 010-2zm14 0a1 1 0 110 2 1 1 0 010-2zm-6-6h-10a1.001 1.001 0 000 2h10a1 1 0 000-2zm0-3h-8a1.001 1.001 0 000 2h8a1 1 0 000-2z"/></svg>