<svg xmlns="http://www.w3.org/2000/svg" viewBox="0 0 1000 1000"><path d="M464.34 5.06c-58.69 9.91-103.97 33.81-145.75 77.15-35.95 37.12-59.27 82.59-68.21 131.75-3.89 21.77-3.89 64.32 0 85.7 14.19 78.31 67.04 148.47 138.17 183.64 39.06 19.24 69.57 26.43 111.74 26.43 65.68 0 125.15-23.9 173.53-69.96 39.45-37.7 67.04-88.23 76.37-140.11 3.89-21.38 3.89-63.93 0-85.89-9.33-52.27-35.56-100.47-76.18-139.33C637.29 38.88 596.87 17.5 547.9 7.2c-20.79-4.47-63.54-5.44-83.56-2.14zm60.63 40.23c109.21 12.05 187.14 100.27 187.14 211.62 0 108.82-73.65 194.33-180.73 210.07-23.71 3.3-62.57 1.36-85.7-4.66-40.81-10.69-67.43-25.85-96.97-55.77-23.13-23.32-35.56-42.17-46.06-70.35-22.15-58.88-18.07-129.62 10.49-182.28 22.15-40.81 52.27-69.57 94.06-89.2 38.48-18.07 75.41-24.29 117.77-19.43z"/><path d="M309.85 483.11c-5.83 2.53-20.4 9.33-32.26 15.55C160.6 558.51 70.44 672 30.79 809.39c-8.36 29.34-15.35 63.94-18.46 91.33L10 921.52l7.77 11.08c8.94 12.63 6.22 11.66 58.88 23.12 172.95 37.51 393.32 50.33 599.5 34.59 95.8-7.19 191.61-21.38 271.67-40.03l26.82-6.22 7.77-10.69c4.08-6.02 7.58-13.02 7.58-15.55 0-12.44-8.94-64.71-15.55-90.56-9.91-39.06-22.54-73.65-39.84-108.82-39.84-80.65-97.94-147.69-169.85-195.5-20.4-13.41-56.94-33.03-75.4-40.42l-9.91-3.89-7 18.66c-4.08 10.1-6.8 19.04-6.22 19.43.58.58 10.1 5.25 21.38 10.3C810.63 583 899.64 694.54 934.62 836.21c6.8 27.59 13.79 69.38 11.85 71.13-1.75 1.75-37.7 9.72-76.95 16.91-220.37 41-496.7 42.17-721.93 3.11-35.76-6.22-91.72-18.07-93.47-19.82-1.36-1.55 3.89-37.31 8.74-59.27 16.71-74.62 50.33-145.55 94.83-200.74 40.81-50.54 96.39-93.68 155.66-120.7 11.08-5.05 20.4-9.52 20.99-10.1.78-.58-11.85-36.15-13.41-37.51-.2-.19-5.25 1.56-11.08 3.89z"/></svg>