<svg xmlns="http://www.w3.org/2000/svg" fill-rule="evenodd" stroke-linejoin="round" stroke-miterlimit="2" clip-rule="evenodd" viewBox="0 0 33 33"><g transform="translate(.463 .704)"><rect width="32" height="32" fill="none"/><path d="M129.634,150.704L128.463,150.704C126.807,150.704 125.463,149.361 125.463,147.704C125.463,145.043 125.463,140.365 125.463,137.704C125.463,136.908 125.779,136.145 126.342,135.583C126.905,135.02 127.668,134.704 128.463,134.704C131.927,134.704 139,134.704 142.463,134.704C143.259,134.704 144.022,135.02 144.585,135.583C145.147,136.145 145.463,136.908 145.463,137.704L145.463,138.704L146.663,138.704C147.947,138.704 149.182,139.198 150.112,140.083C150.898,140.832 151.906,141.792 152.541,142.397C153.13,142.958 153.463,143.736 153.463,144.55C153.463,145.714 153.463,147.797 153.463,148.926C153.463,149.908 152.667,150.704 151.685,150.704L149.292,150.704C148.88,151.869 147.769,152.704 146.463,152.704C145.158,152.704 144.047,151.869 143.634,150.704L135.292,150.704C134.88,151.869 133.769,152.704 132.463,152.704C131.158,152.704 130.047,151.869 129.634,150.704ZM132.463,148.704C133.015,148.704 133.463,149.152 133.463,149.704C133.463,150.256 133.015,150.704 132.463,150.704C131.912,150.704 131.463,150.256 131.463,149.704C131.463,149.152 131.912,148.704 132.463,148.704ZM146.463,148.704C147.015,148.704 147.463,149.152 147.463,149.704C147.463,150.256 147.015,150.704 146.463,150.704C145.912,150.704 145.463,150.256 145.463,149.704C145.463,149.152 145.912,148.704 146.463,148.704ZM140.463,142.704L130.463,142.704C129.912,142.704 129.463,143.152 129.463,143.704C129.463,144.256 129.912,144.704 130.463,144.704L140.463,144.704C141.015,144.704 141.463,144.256 141.463,143.704C141.463,143.152 141.015,142.704 140.463,142.704ZM140.463,139.704L132.463,139.704C131.912,139.704 131.463,140.152 131.463,140.704C131.463,141.256 131.912,141.704 132.463,141.704L140.463,141.704C141.015,141.704 141.463,141.256 141.463,140.704C141.463,140.152 141.015,139.704 140.463,139.704Z" transform="translate(-123.463 -127.704)"/></g></svg>