<svg xmlns="http://www.w3.org/2000/svg"
 xmlns:xlink="http://www.w3.org/1999/xlink"
 width="20px" height="6px"  viewBox="0 0 20 6">
<path fill-rule="evenodd"  fill="#ffffff"
 d="M3.5,1.9998169 C4.32843,1.9998169 4.999939,2.6715698 4.999939,3.499878 C4.999939,4.328247 4.32843,5.0 3.5,5.0 C2.6715698,5.0 1.9998779,4.328247 1.9998779,3.499878 C1.9998779,2.6715698 2.6715698,1.9998169 3.5,1.9998169 ZM10.5,1.9998169 C11.328308,1.9998169 12.0,2.6715698 12.0,3.499878 C12.0,4.328247 11.328308,5.0 10.5,5.0 C9.67157,5.0 8.999878,4.328247 8.999878,3.499878 C8.999878,2.6715698 9.67157,1.9998169 10.5,1.9998169 ZM17.5,1.9998169 C18.328308,1.9998169 19.0,2.6715698 19.0,3.499878 C19.0,4.328247 18.328308,5.0 17.5,5.0 C16.67157,5.0 15.999878,4.328247 15.999878,3.499878 C15.999878,2.6715698 16.67157,1.9998169 17.5,1.9998169 Z"/>
</svg>