<svg width="21" height="21" viewBox="0 0 21 21" fill="none" xmlns="http://www.w3.org/2000/svg">
<path d="M4.5 0.5H0.5V4.5H4.5V0.5Z" fill="#D9D9D9" stroke="#E91506"/>
<path d="M4.5 0.5H0.5V4.5H4.5V0.5Z" fill="white" stroke="#696B71"/>
<path d="M12.5 0.5H8.5V4.5H12.5V0.5Z" fill="white" stroke="#696B71"/>
<path d="M20.5 0.5H16.5V4.5H20.5V0.5Z" fill="white" stroke="#696B71"/>
<path d="M4.5 16.5H0.5V20.5H4.5V16.5Z" fill="#D9D9D9" stroke="#E91506"/>
<path d="M4.5 16.5H0.5V20.5H4.5V16.5Z" fill="white" stroke="#696B71"/>
<path d="M12.5 16.5H8.5V20.5H12.5V16.5Z" fill="white" stroke="#696B71"/>
<path d="M20.5 16.5H16.5V20.5H20.5V16.5Z" fill="white" stroke="#696B71"/>
<path d="M4.5 8.5H0.5V12.5H4.5V8.5Z" fill="white" stroke="#696B71"/>
<path d="M12.5 8.5H8.5V12.5H12.5V8.5Z" fill="white" stroke="#696B71"/>
<path d="M20.5 8.5H16.5V12.5H20.5V8.5Z" fill="white" stroke="#696B71"/>
</svg>
