<?xml version="1.0" encoding="utf-8"?>
<!-- Svg Vector Icons : http://www.onlinewebfonts.com/icon -->
<!DOCTYPE svg PUBLIC "-//W3C//DTD SVG 1.1//EN" "http://www.w3.org/Graphics/SVG/1.1/DTD/svg11.dtd">
<svg version="1.1" xmlns="http://www.w3.org/2000/svg" xmlns:xlink="http://www.w3.org/1999/xlink" x="0px" y="0px" viewBox="0 0 1000 1000" enable-background="new 0 0 1000 1000" xml:space="preserve">
<metadata> Svg Vector Icons : http://www.onlinewebfonts.com/icon </metadata>
<g><g transform="translate(0.000000,512.000000) scale(0.100000,-0.100000)"><path d="M4643.4,5069.4c-586.9-99.1-1039.7-338.1-1457.5-771.5c-359.5-371.2-592.7-825.9-682.1-1317.5c-38.9-217.7-38.9-643.2,0-857c141.9-783.1,670.4-1484.7,1381.7-1836.4C4276.1,94.6,4581.2,22.7,5002.9,22.7c656.8,0,1251.5,239,1735.3,699.6c394.5,377,670.4,882.3,763.7,1401.1c38.9,213.8,38.9,639.3,0,858.9c-93.3,522.7-355.6,1004.7-761.8,1393.3C6372.9,4731.2,5968.7,4945,5479,5048C5271.1,5092.7,4843.6,5102.4,4643.4,5069.4z M5249.7,4667.1c1092.1-120.5,1871.4-1002.7,1871.4-2116.2c0-1088.2-736.5-1943.3-1807.3-2100.7c-237.1-33-625.7-13.6-857,46.6c-408.1,106.9-674.3,258.5-969.7,557.7c-231.3,233.2-355.6,421.7-460.6,703.5c-221.5,588.8-180.7,1296.2,104.9,1822.8c221.5,408.1,522.7,695.7,940.6,892C4456.8,4653.5,4826.1,4715.7,5249.7,4667.1z"/><path d="M3098.5,288.9c-58.3-25.3-204-93.3-322.6-155.5C1606-465.1,704.4-1600,307.9-2973.9c-83.6-293.4-153.5-639.4-184.6-913.3L100-4095.2l77.7-110.8c89.4-126.3,62.2-116.6,588.8-231.2c1729.5-375.1,3933.2-503.3,5995-345.9c958,71.9,1916.1,213.8,2716.7,400.3l268.2,62.2l77.7,106.9c40.8,60.2,75.8,130.2,75.8,155.5c0,124.4-89.4,647.1-155.5,905.6c-99.1,390.6-225.4,736.5-398.4,1088.2c-398.4,806.5-979.4,1476.9-1698.5,1955c-204,134.1-569.4,330.3-754,404.2l-99.1,38.9l-70-186.6c-40.8-101-68-190.4-62.2-194.3c5.8-5.8,101-52.5,213.8-103C8106.3-710,8996.4-1825.4,9346.2-3242.1c68-275.9,137.9-693.8,118.5-711.3c-17.5-17.5-377-97.2-769.5-169.1c-2203.7-410-4967-421.7-7219.3-31.1c-357.6,62.2-917.2,180.7-934.7,198.2c-13.6,15.5,38.9,373.1,87.4,592.7c167.1,746.2,503.3,1455.5,948.3,2007.4C1985-849.9,2540.8-418.5,3133.5-148.3c110.8,50.5,204,95.2,209.9,101c7.8,5.8-118.5,361.5-134.1,375.1C3207.3,329.7,3156.8,312.2,3098.5,288.9z"/></g></g>
</svg>